# xmcd CD database file
# Copyright (C) 1997 Ti Kan
# 
# Track frame offsets:
#     182
#     11427
#     26205
#     37785
#     50052
#     64682
#     74880
#     87035
#     97107
#     117057
# 
# Disc length: 1723 seconds
# 
# Revision: 1
# Processed by: cddbd v1.4b41PL1 Copyright (c) Steve Scherf et al.
# Submitted via: DiscPlay 4.0.3
# 
DISCID=8306b90a
DTITLE=Cathedral Quartet - Raise The Roof
DYEAR=1900
DGENRE=
TTITLE0=Raise The Roof
TTITLE1=Your Blesser Ain't Never Been Blessed
TTITLE2=No News Is Good News
TTITLE3=Oh, Come Along
TTITLE4=Hereafter
TTITLE5=Still Drinking Water From The Well
TTITLE6=I've Never Been Sorry
TTITLE7=Somebody Loves Me
TTITLE8=Don't Be Afraid
TTITLE9=Never Before, Never Again
EXTD=
EXTT0=
EXTT1=
EXTT2=
EXTT3=
EXTT4=
EXTT5=
EXTT6=
EXTT7=
EXTT8=
EXTT9=
PLAYORDER=
